<?xml version="1.0" encoding="utf-8"?>
<!-- Generator: Adobe Illustrator 18.1.1, SVG Export Plug-In . SVG Version: 6.00 Build 0)  -->
<svg version="1.1" xmlns="http://www.w3.org/2000/svg" xmlns:xlink="http://www.w3.org/1999/xlink" x="0px" y="0px"
	 viewBox="0 0 1000 1000" enable-background="new 0 0 1000 1000" xml:space="preserve">
<g id="num">
	<path fill="#201600" d="M500,958c-61.8,0-121.8-12.1-178.3-36c-54.5-23.1-103.5-56.1-145.6-98.2c-42.1-42.1-75.1-91-98.1-145.6
		C54.1,621.8,42,561.8,42,500s12.1-121.8,36-178.3c23.1-54.5,56.1-103.5,98.1-145.6c42.1-42.1,91-75.1,145.6-98.1
		C378.2,54.1,438.2,42,500,42s121.8,12.1,178.3,36c54.5,23.1,103.5,56.1,145.6,98.1c42.1,42.1,75.1,91,98.2,145.6
		c23.9,56.5,36,116.5,36,178.3s-12.1,121.8-36,178.3c-23.1,54.5-56.1,103.5-98.2,145.6c-42.1,42.1-91,75.1-145.6,98.2
		C621.8,945.9,561.8,958,500,958z M500,58C256.3,58,58,256.3,58,500s198.3,442,442,442s442-198.3,442-442S743.7,58,500,58z"/>
	<path fill="#201600" d="M500,517c-9.4,0-17-7.6-17-17s7.6-17,17-17s17,7.6,17,17S509.4,517,500,517z M500,499c-0.6,0-1,0.4-1,1
		s0.4,1,1,1s1-0.4,1-1S500.6,499,500,499z"/>
	<g>
		<path fill="#201600" d="M500,958c-4.4,0-8-3.6-8-8v-36c0-4.4,3.6-8,8-8c4.4,0,8,3.6,8,8v36C508,954.4,504.4,958,500,958z"/>
		<path fill="#201600" d="M500,94c-4.4,0-8-3.6-8-8V50c0-4.4,3.6-8,8-8c4.4,0,8,3.6,8,8v36C508,90.4,504.4,94,500,94z"/>
	</g>
	<g>
		<path fill="#201600" d="M725,897.7c-2.8,0-5.5-1.4-6.9-4l-18-31.1c-2.2-3.8-0.9-8.7,2.9-10.9c3.8-2.2,8.7-0.9,10.9,2.9l18,31.1
			c2.2,3.8,0.9,8.7-2.9,10.9C727.7,897.4,726.4,897.7,725,897.7z"/>
		<path fill="#201600" d="M293,149.4c-2.8,0-5.5-1.4-6.9-4l-18-31.1c-2.2-3.8-0.9-8.7,2.9-10.9c3.8-2.2,8.7-0.9,10.9,2.9l18,31.1
			c2.2,3.8,0.9,8.7-2.9,10.9C295.7,149.1,294.3,149.4,293,149.4z"/>
	</g>
	<g>
		<path fill="#201600" d="M889.7,733c-1.4,0-2.7-0.3-4-1.1l-31.1-18c-3.8-2.2-5.1-7.1-2.9-10.9c2.2-3.8,7.1-5.1,10.9-2.9l31.1,18
			c3.8,2.2,5.1,7.1,2.9,10.9C895.2,731.6,892.5,733,889.7,733z"/>
		<path fill="#201600" d="M141.4,301c-1.4,0-2.7-0.3-4-1.1l-31.1-18c-3.8-2.2-5.1-7.1-2.9-10.9c2.2-3.8,7.1-5.1,10.9-2.9l31.1,18
			c3.8,2.2,5.1,7.1,2.9,10.9C146.9,299.5,144.2,301,141.4,301z"/>
	</g>
	<g>
		<path fill="#201600" d="M950,508h-36c-4.4,0-8-3.6-8-8c0-4.4,3.6-8,8-8h36c4.4,0,8,3.6,8,8C958,504.4,954.4,508,950,508z"/>
		<path fill="#201600" d="M86,508H50c-4.4,0-8-3.6-8-8c0-4.4,3.6-8,8-8h36c4.4,0,8,3.6,8,8C94,504.4,90.4,508,86,508z"/>
	</g>
	<g>
		<path fill="#201600" d="M858.6,301c-2.8,0-5.5-1.4-6.9-4c-2.2-3.8-0.9-8.7,2.9-10.9l31.1-18c3.8-2.2,8.7-0.9,10.9,2.9
			c2.2,3.8,0.9,8.7-2.9,10.9l-31.1,18C861.3,300.6,860,301,858.6,301z"/>
		<path fill="#201600" d="M110.3,733c-2.8,0-5.5-1.4-6.9-4c-2.2-3.8-0.9-8.7,2.9-10.9l31.1-18c3.8-2.2,8.7-0.9,10.9,2.9
			c2.2,3.8,0.9,8.7-2.9,10.9l-31.1,18C113,732.7,111.7,733,110.3,733z"/>
	</g>
	<g>
		<path fill="#201600" d="M707,149.4c-1.4,0-2.7-0.3-4-1.1c-3.8-2.2-5.1-7.1-2.9-10.9l18-31.1c2.2-3.8,7.1-5.1,10.9-2.9
			c3.8,2.2,5.1,7.1,2.9,10.9l-18,31.1C712.5,148,709.8,149.4,707,149.4z"/>
		<path fill="#201600" d="M275,897.7c-1.4,0-2.7-0.3-4-1.1c-3.8-2.2-5.1-7.1-2.9-10.9l18-31.1c2.2-3.8,7.1-5.1,10.9-2.9
			c3.8,2.2,5.1,7.1,2.9,10.9l-18,31.1C280.4,896.3,277.8,897.7,275,897.7z"/>
	</g>
	<g>
		<path fill="#201600" d="M547,955.5c-4,0-7.5-3.1-7.9-7.2l-2-19c-0.5-4.4,2.7-8.3,7.1-8.8c4.4-0.5,8.3,2.7,8.8,7.1l2,19
			c0.5,4.4-2.7,8.3-7.1,8.8C547.6,955.5,547.3,955.5,547,955.5z"/>
		<path fill="#201600" d="M455,79.5c-4,0-7.5-3.1-7.9-7.2l-2-19c-0.5-4.4,2.7-8.3,7.1-8.8c4.4-0.5,8.3,2.7,8.8,7.1l2,19
			c0.5,4.4-2.7,8.3-7.1,8.8C455.5,79.5,455.2,79.5,455,79.5z"/>
	</g>
	<g>
		<path fill="#201600" d="M593.6,948.2c-3.7,0-7-2.6-7.8-6.3l-4-18.7c-0.9-4.3,1.8-8.6,6.2-9.5c4.3-0.9,8.6,1.8,9.5,6.2l4,18.7
			c0.9,4.3-1.8,8.6-6.2,9.5C594.7,948.1,594.1,948.2,593.6,948.2z"/>
		<path fill="#201600" d="M410.4,86.5c-3.7,0-7-2.6-7.8-6.3l-4-18.7c-0.9-4.3,1.8-8.6,6.2-9.5c4.3-0.9,8.6,1.8,9.5,6.2l4,18.7
			c0.9,4.3-1.8,8.6-6.2,9.5C411.5,86.5,411,86.5,410.4,86.5z"/>
	</g>
	<g>
		<path fill="#201600" d="M639.1,936c-3.4,0-6.5-2.1-7.6-5.5l-5.9-18.2c-1.4-4.2,0.9-8.7,5.1-10.1c4.2-1.4,8.7,0.9,10.1,5.1
			l5.9,18.2c1.4,4.2-0.9,8.7-5.1,10.1C640.7,935.9,639.9,936,639.1,936z"/>
		<path fill="#201600" d="M366.9,98.2c-3.4,0-6.5-2.1-7.6-5.5l-5.9-18.2c-1.4-4.2,0.9-8.7,5.1-10.1c4.2-1.4,8.7,0.9,10.1,5.1
			l5.9,18.2c1.4,4.2-0.9,8.7-5.1,10.1C368.5,98.1,367.7,98.2,366.9,98.2z"/>
	</g>
	<g>
		<path fill="#201600" d="M683,919.1c-3.1,0-6-1.8-7.3-4.7l-7.8-17.5c-1.8-4,0-8.8,4.1-10.6c4-1.8,8.8,0,10.6,4.1l7.8,17.5
			c1.8,4,0,8.8-4.1,10.6C685.2,918.9,684.1,919.1,683,919.1z"/>
		<path fill="#201600" d="M324.8,114.4c-3.1,0-6-1.8-7.3-4.7l-7.8-17.5c-1.8-4,0-8.8,4.1-10.6c4-1.8,8.8,0,10.6,4.1l7.8,17.5
			c1.8,4,0,8.8-4.1,10.6C326.9,114.2,325.8,114.4,324.8,114.4z"/>
	</g>
	<g>
		<path fill="#201600" d="M764.5,872.1c-2.5,0-4.9-1.1-6.5-3.3l-11.2-15.5c-2.6-3.6-1.8-8.6,1.8-11.2c3.6-2.6,8.6-1.8,11.2,1.8
			l11.2,15.5c2.6,3.6,1.8,8.6-1.8,11.2C767.8,871.6,766.1,872.1,764.5,872.1z"/>
		<path fill="#201600" d="M246.7,159.4c-2.5,0-4.9-1.1-6.5-3.3L229,140.6c-2.6-3.6-1.8-8.6,1.8-11.2c3.6-2.6,8.6-1.8,11.2,1.8
			l11.2,15.5c2.6,3.6,1.8,8.6-1.8,11.2C250,158.9,248.4,159.4,246.7,159.4z"/>
	</g>
	<g>
		<path fill="#201600" d="M801.1,842.4c-2.2,0-4.4-0.9-5.9-2.6l-12.8-14.2c-3-3.3-2.7-8.3,0.6-11.3c3.3-3,8.3-2.7,11.3,0.6
			l12.8,14.2c3,3.3,2.7,8.3-0.6,11.3C804.9,841.7,803,842.4,801.1,842.4z"/>
		<path fill="#201600" d="M211.7,187.8c-2.2,0-4.4-0.9-5.9-2.6l-12.8-14.2c-3-3.3-2.7-8.3,0.6-11.3c3.3-3,8.3-2.7,11.3,0.6
			l12.8,14.2c3,3.3,2.7,8.3-0.6,11.3C215.5,187.1,213.6,187.8,211.7,187.8z"/>
	</g>
	<g>
		<path fill="#201600" d="M834.4,809.1c-1.9,0-3.8-0.7-5.3-2.1l-14.2-12.8c-3.3-3-3.5-8-0.6-11.3c3-3.3,8-3.5,11.3-0.6l14.2,12.8
			c3.3,3,3.5,8,0.6,11.3C838.8,808.2,836.6,809.1,834.4,809.1z"/>
		<path fill="#201600" d="M179.8,219.7c-1.9,0-3.8-0.7-5.4-2.1l-14.2-12.8c-3.3-3-3.5-8-0.6-11.3c3-3.3,8-3.5,11.3-0.6l14.2,12.8
			c3.3,3,3.5,8,0.6,11.3C184.2,218.8,182,219.7,179.8,219.7z"/>
	</g>
	<g>
		<path fill="#201600" d="M864.1,772.5c-1.6,0-3.3-0.5-4.7-1.5l-15.5-11.2c-3.6-2.6-4.4-7.6-1.8-11.2c2.6-3.6,7.6-4.4,11.2-1.8
			l15.5,11.2c3.6,2.6,4.4,7.6,1.8,11.2C869,771.4,866.5,772.5,864.1,772.5z"/>
		<path fill="#201600" d="M151.4,254.7c-1.6,0-3.3-0.5-4.7-1.5L131.2,242c-3.6-2.6-4.4-7.6-1.8-11.2c2.6-3.6,7.6-4.4,11.2-1.8
			l15.5,11.2c3.6,2.6,4.4,7.6,1.8,11.2C156.3,253.6,153.9,254.7,151.4,254.7z"/>
	</g>
	<g>
		<path fill="#201600" d="M911.1,691c-1.1,0-2.2-0.2-3.2-0.7l-17.5-7.8c-4-1.8-5.9-6.5-4.1-10.6c1.8-4,6.5-5.9,10.6-4.1l17.5,7.8
			c4,1.8,5.9,6.5,4.1,10.6C917.1,689.3,914.2,691,911.1,691z"/>
		<path fill="#201600" d="M106.4,332.7c-1.1,0-2.2-0.2-3.2-0.7l-17.5-7.8c-4-1.8-5.9-6.5-4.1-10.6c1.8-4,6.5-5.8,10.6-4.1l17.5,7.8
			c4,1.8,5.9,6.5,4.1,10.6C112.4,331,109.4,332.7,106.4,332.7z"/>
	</g>
	<g>
		<path fill="#201600" d="M928,647.1c-0.8,0-1.7-0.1-2.5-0.4l-18.2-5.9c-4.2-1.4-6.5-5.9-5.1-10.1c1.4-4.2,5.9-6.5,10.1-5.1
			l18.2,5.9c4.2,1.4,6.5,5.9,5.1,10.1C934.5,644.9,931.3,647.1,928,647.1z"/>
		<path fill="#201600" d="M90.2,374.9c-0.8,0-1.7-0.1-2.5-0.4l-18.2-5.9c-4.2-1.4-6.5-5.9-5.1-10.1c1.4-4.2,5.9-6.5,10.1-5.1
			l18.2,5.9c4.2,1.4,6.5,5.9,5.1,10.1C96.7,372.7,93.6,374.9,90.2,374.9z"/>
	</g>
	<g>
		<path fill="#201600" d="M940.2,601.6c-0.6,0-1.1-0.1-1.7-0.2l-18.7-4c-4.3-0.9-7.1-5.2-6.2-9.5c0.9-4.3,5.2-7.1,9.5-6.2l18.7,4
			c4.3,0.9,7.1,5.2,6.2,9.5C947.2,599,943.9,601.6,940.2,601.6z"/>
		<path fill="#201600" d="M78.5,418.4c-0.6,0-1.1-0.1-1.7-0.2l-18.7-4c-4.3-0.9-7.1-5.2-6.2-9.5c0.9-4.3,5.2-7.1,9.5-6.2l18.7,4
			c4.3,0.9,7.1,5.2,6.2,9.5C85.6,415.8,82.2,418.4,78.5,418.4z"/>
	</g>
	<g>
		<path fill="#201600" d="M947.5,555c-0.3,0-0.6,0-0.8,0l-19-2c-4.4-0.5-7.6-4.4-7.1-8.8c0.5-4.4,4.4-7.6,8.8-7.1l19,2
			c4.4,0.5,7.6,4.4,7.1,8.8C955.1,552,951.6,555,947.5,555z"/>
		<path fill="#201600" d="M71.5,463c-0.3,0-0.6,0-0.8,0l-19-2c-4.4-0.5-7.6-4.4-7.1-8.8c0.5-4.4,4.4-7.6,8.8-7.1l19,2
			c4.4,0.5,7.6,4.4,7.1,8.8C79,459.9,75.5,463,71.5,463z"/>
	</g>
	<g>
		<path fill="#201600" d="M928.5,463c-4,0-7.5-3.1-7.9-7.2c-0.5-4.4,2.7-8.3,7.1-8.8l19-2c4.4-0.5,8.3,2.7,8.8,7.1
			c0.5,4.4-2.7,8.3-7.1,8.8l-19,2C929.1,462.9,928.8,463,928.5,463z"/>
		<path fill="#201600" d="M52.5,555c-4,0-7.5-3.1-7.9-7.2c-0.5-4.4,2.7-8.3,7.1-8.8l19-2c4.4-0.5,8.3,2.7,8.8,7.1
			c0.5,4.4-2.7,8.3-7.1,8.8l-19,2C53,555,52.7,555,52.5,555z"/>
	</g>
	<g>
		<path fill="#201600" d="M921.5,418.4c-3.7,0-7-2.6-7.8-6.3c-0.9-4.3,1.8-8.6,6.2-9.5l18.7-4c4.3-0.9,8.6,1.8,9.5,6.2
			s-1.8,8.6-6.2,9.5l-18.7,4C922.6,418.4,922,418.4,921.5,418.4z"/>
		<path fill="#201600" d="M59.8,601.6c-3.7,0-7-2.6-7.8-6.3c-0.9-4.3,1.8-8.6,6.2-9.5l18.7-4c4.3-0.9,8.6,1.8,9.5,6.2
			c0.9,4.3-1.8,8.6-6.2,9.5l-18.7,4C60.9,601.5,60.4,601.6,59.8,601.6z"/>
	</g>
	<g>
		<path fill="#201600" d="M909.8,374.9c-3.4,0-6.5-2.1-7.6-5.5c-1.4-4.2,0.9-8.7,5.1-10.1l18.2-5.9c4.2-1.4,8.7,0.9,10.1,5.1
			s-0.9,8.7-5.1,10.1l-18.2,5.9C911.4,374.7,910.6,374.9,909.8,374.9z"/>
		<path fill="#201600" d="M72,647.1c-3.4,0-6.5-2.1-7.6-5.5c-1.4-4.2,0.9-8.7,5.1-10.1l18.2-5.9c4.2-1.4,8.7,0.9,10.1,5.1
			c1.4,4.2-0.9,8.7-5.1,10.1l-18.2,5.9C73.7,646.9,72.8,647.1,72,647.1z"/>
	</g>
	<g>
		<path fill="#201600" d="M893.6,332.7c-3.1,0-6-1.8-7.3-4.7c-1.8-4,0-8.8,4.1-10.6l17.5-7.8c4-1.8,8.8,0,10.6,4.1
			c1.8,4,0,8.8-4.1,10.6l-17.5,7.8C895.8,332.5,894.7,332.7,893.6,332.7z"/>
		<path fill="#201600" d="M88.9,691c-3.1,0-6-1.8-7.3-4.7c-1.8-4,0-8.8,4.1-10.6l17.5-7.8c4-1.8,8.8,0,10.6,4.1
			c1.8,4,0,8.8-4.1,10.6l-17.5,7.8C91.1,690.8,90,691,88.9,691z"/>
	</g>
	<g>
		<path fill="#201600" d="M848.6,254.7c-2.5,0-4.9-1.1-6.5-3.3c-2.6-3.6-1.8-8.6,1.8-11.2l15.5-11.2c3.6-2.6,8.6-1.8,11.2,1.8
			c2.6,3.6,1.8,8.6-1.8,11.2l-15.5,11.2C851.9,254.2,850.2,254.7,848.6,254.7z"/>
		<path fill="#201600" d="M135.9,772.5c-2.5,0-4.9-1.1-6.5-3.3c-2.6-3.6-1.8-8.6,1.8-11.2l15.5-11.2c3.6-2.6,8.6-1.8,11.2,1.8
			s1.8,8.6-1.8,11.2L140.6,771C139.2,772,137.6,772.5,135.9,772.5z"/>
	</g>
	<g>
		<path fill="#201600" d="M820.2,219.7c-2.2,0-4.4-0.9-5.9-2.6c-3-3.3-2.7-8.3,0.6-11.3l14.2-12.8c3.3-3,8.3-2.7,11.3,0.6
			c3,3.3,2.7,8.3-0.6,11.3l-14.2,12.8C824,219,822.1,219.7,820.2,219.7z"/>
		<path fill="#201600" d="M165.6,809.1c-2.2,0-4.4-0.9-5.9-2.6c-3-3.3-2.7-8.3,0.6-11.3l14.2-12.8c3.3-3,8.3-2.7,11.3,0.6
			c3,3.3,2.7,8.3-0.6,11.3l-14.2,12.8C169.4,808.4,167.5,809.1,165.6,809.1z"/>
	</g>
	<g>
		<path fill="#201600" d="M788.3,187.8c-1.9,0-3.8-0.7-5.3-2.1c-3.3-3-3.5-8-0.6-11.3l12.8-14.2c3-3.3,8-3.5,11.3-0.6
			c3.3,3,3.5,8,0.6,11.3l-12.8,14.2C792.7,186.9,790.5,187.8,788.3,187.8z"/>
		<path fill="#201600" d="M198.9,842.4c-1.9,0-3.8-0.7-5.4-2.1c-3.3-3-3.5-8-0.6-11.3l12.8-14.2c3-3.3,8-3.5,11.3-0.6
			c3.3,3,3.5,8,0.6,11.3l-12.8,14.2C203.3,841.5,201.1,842.4,198.9,842.4z"/>
	</g>
	<g>
		<path fill="#201600" d="M753.3,159.4c-1.6,0-3.3-0.5-4.7-1.5c-3.6-2.6-4.4-7.6-1.8-11.2l11.2-15.5c2.6-3.6,7.6-4.4,11.2-1.8
			c3.6,2.6,4.4,7.6,1.8,11.2l-11.2,15.5C758.2,158.3,755.7,159.4,753.3,159.4z"/>
		<path fill="#201600" d="M235.5,872.1c-1.6,0-3.3-0.5-4.7-1.5c-3.6-2.6-4.4-7.6-1.8-11.2l11.2-15.5c2.6-3.6,7.6-4.4,11.2-1.8
			c3.6,2.6,4.4,7.6,1.8,11.2L242,868.8C240.4,870.9,238,872.1,235.5,872.1z"/>
	</g>
	<g>
		<path fill="#201600" d="M675.2,114.4c-1.1,0-2.2-0.2-3.2-0.7c-4-1.8-5.9-6.5-4.1-10.6l7.8-17.5c1.8-4,6.5-5.9,10.6-4.1
			c4,1.8,5.9,6.5,4.1,10.6l-7.8,17.5C681.2,112.6,678.3,114.4,675.2,114.4z"/>
		<path fill="#201600" d="M317,919.1c-1.1,0-2.2-0.2-3.2-0.7c-4-1.8-5.9-6.5-4.1-10.6l7.8-17.5c1.8-4,6.5-5.8,10.6-4.1
			c4,1.8,5.9,6.5,4.1,10.6l-7.8,17.5C323,917.3,320,919.1,317,919.1z"/>
	</g>
	<g>
		<path fill="#201600" d="M633.2,98.2c-0.8,0-1.7-0.1-2.5-0.4c-4.2-1.4-6.5-5.9-5.1-10.1l5.9-18.2c1.4-4.2,5.9-6.5,10.1-5.1
			c4.2,1.4,6.5,5.9,5.1,10.1l-5.9,18.2C639.7,96.1,636.5,98.2,633.2,98.2z"/>
		<path fill="#201600" d="M360.9,936c-0.8,0-1.7-0.1-2.5-0.4c-4.2-1.4-6.5-5.9-5.1-10.1l5.9-18.2c1.4-4.2,5.9-6.5,10.1-5.1
			c4.2,1.4,6.5,5.9,5.1,10.1l-5.9,18.2C367.5,933.8,364.3,936,360.9,936z"/>
	</g>
	<g>
		<path fill="#201600" d="M589.6,86.5c-0.6,0-1.1-0.1-1.7-0.2c-4.3-0.9-7.1-5.2-6.2-9.5l4-18.7c0.9-4.3,5.2-7.1,9.5-6.2
			c4.3,0.9,7.1,5.2,6.2,9.5l-4,18.7C596.6,84,593.3,86.5,589.6,86.5z"/>
		<path fill="#201600" d="M406.4,948.2c-0.6,0-1.1-0.1-1.7-0.2c-4.3-0.9-7.1-5.2-6.2-9.5l4-18.7c0.9-4.3,5.2-7.1,9.5-6.2
			c4.3,0.9,7.1,5.2,6.2,9.5l-4,18.7C413.5,945.6,410.1,948.2,406.4,948.2z"/>
	</g>
	<g>
		<path fill="#201600" d="M545,79.5c-0.3,0-0.6,0-0.8,0c-4.4-0.5-7.6-4.4-7.1-8.8l2-19c0.5-4.4,4.4-7.6,8.8-7.1
			c4.4,0.5,7.6,4.4,7.1,8.8l-2,19C552.6,76.4,549.1,79.5,545,79.5z"/>
		<path fill="#201600" d="M453,955.5c-0.3,0-0.6,0-0.8,0c-4.4-0.5-7.6-4.4-7.1-8.8l2-19c0.5-4.4,4.4-7.6,8.8-7.1
			c4.4,0.5,7.6,4.4,7.1,8.8l-2,19C460.5,952.5,457,955.5,453,955.5z"/>
	</g>
	<g>
		<path d="M496.8,148c0,0.6,0,1.2-0.1,1.6s-0.2,0.8-0.3,1.1c-0.1,0.3-0.3,0.5-0.4,0.6c-0.2,0.1-0.3,0.2-0.5,0.2H471
			c-0.2,0-0.4-0.1-0.5-0.2c-0.2-0.1-0.3-0.3-0.4-0.6c-0.1-0.3-0.2-0.6-0.3-1.1s-0.1-1-0.1-1.6c0-0.7,0-1.2,0.1-1.7
			c0.1-0.4,0.1-0.8,0.3-1.1c0.1-0.3,0.3-0.5,0.4-0.6c0.2-0.1,0.3-0.2,0.5-0.2h8.2v-28.8l-7.1,3.9c-0.5,0.3-1,0.4-1.3,0.5
			c-0.3,0.1-0.6,0-0.8-0.2c-0.2-0.2-0.3-0.5-0.4-1s-0.1-1.2-0.1-2c0-0.5,0-1,0-1.4c0-0.4,0.1-0.7,0.2-0.9c0.1-0.3,0.2-0.5,0.4-0.6
			c0.2-0.2,0.4-0.3,0.6-0.5l9.5-6.2c0.1-0.1,0.3-0.2,0.4-0.2c0.2-0.1,0.4-0.1,0.7-0.1s0.6-0.1,1.1-0.1c0.4,0,1,0,1.7,0
			c0.9,0,1.6,0,2.1,0.1c0.5,0,0.9,0.1,1.2,0.2c0.3,0.1,0.5,0.2,0.5,0.3c0.1,0.1,0.1,0.3,0.1,0.5v36.5h7.2c0.2,0,0.4,0.1,0.6,0.2
			c0.2,0.1,0.3,0.3,0.4,0.6c0.1,0.3,0.2,0.6,0.3,1.1C496.8,146.8,496.8,147.3,496.8,148z"/>
		<path d="M532.7,147.8c0,0.7,0,1.2-0.1,1.7c-0.1,0.5-0.1,0.8-0.3,1.1c-0.1,0.3-0.3,0.5-0.4,0.6c-0.2,0.1-0.4,0.2-0.6,0.2h-25.4
			c-0.5,0-0.9,0-1.3-0.1c-0.4-0.1-0.7-0.3-0.9-0.5c-0.2-0.3-0.4-0.6-0.5-1.1c-0.1-0.5-0.2-1.2-0.2-1.9c0-0.8,0-1.4,0.1-1.9
			c0.1-0.5,0.2-1,0.4-1.4c0.2-0.4,0.4-0.8,0.7-1.2c0.3-0.4,0.7-0.8,1.1-1.3l7.7-8.2c1.5-1.6,2.8-3,3.7-4.4c0.9-1.3,1.7-2.5,2.2-3.6
			c0.5-1.1,0.9-2.1,1.1-3c0.2-0.9,0.3-1.8,0.3-2.6c0-0.8-0.1-1.5-0.4-2.1c-0.2-0.7-0.6-1.3-1.1-1.8c-0.5-0.5-1.1-0.9-1.8-1.2
			c-0.7-0.3-1.5-0.4-2.5-0.4c-1.3,0-2.5,0.2-3.6,0.5c-1,0.3-1.9,0.7-2.7,1.1c-0.8,0.4-1.4,0.8-2,1.2c-0.5,0.4-0.9,0.5-1.2,0.5
			c-0.2,0-0.4-0.1-0.5-0.2s-0.3-0.4-0.4-0.7c-0.1-0.3-0.2-0.7-0.2-1.3c-0.1-0.5-0.1-1.2-0.1-2c0-0.5,0-1,0.1-1.3
			c0-0.4,0.1-0.7,0.2-0.9c0.1-0.3,0.2-0.5,0.3-0.7c0.1-0.2,0.3-0.4,0.6-0.7s0.8-0.6,1.6-1c0.8-0.4,1.7-0.8,2.8-1.2
			c1.1-0.4,2.3-0.7,3.7-1c1.3-0.3,2.7-0.4,4.2-0.4c2.3,0,4.3,0.3,6,0.9s3.2,1.4,4.3,2.4c1.1,1,2,2.3,2.5,3.7c0.6,1.4,0.8,3,0.8,4.6
			c0,1.4-0.1,2.8-0.4,4.2c-0.3,1.4-0.8,2.9-1.7,4.5c-0.9,1.6-2.1,3.4-3.7,5.3s-3.7,4.2-6.3,6.8l-5.2,5.3h17.4c0.2,0,0.4,0.1,0.6,0.2
			s0.4,0.3,0.5,0.6c0.1,0.3,0.2,0.7,0.3,1.1C532.6,146.6,532.7,147.1,532.7,147.8z"/>
	</g>
	<g>
		<path d="M313.8,200.7c0,0.6,0,1.2-0.1,1.6s-0.2,0.8-0.3,1.1c-0.1,0.3-0.3,0.5-0.4,0.6c-0.2,0.1-0.3,0.2-0.5,0.2H288
			c-0.2,0-0.4-0.1-0.5-0.2c-0.2-0.1-0.3-0.3-0.4-0.6c-0.1-0.3-0.2-0.6-0.3-1.1s-0.1-1-0.1-1.6c0-0.7,0-1.2,0.1-1.7
			c0.1-0.4,0.1-0.8,0.3-1.1c0.1-0.3,0.3-0.5,0.4-0.6c0.2-0.1,0.3-0.2,0.5-0.2h8.2v-28.8l-7.1,3.9c-0.5,0.3-1,0.4-1.3,0.5
			c-0.3,0.1-0.6,0-0.8-0.2c-0.2-0.2-0.3-0.5-0.4-1s-0.1-1.2-0.1-2c0-0.5,0-1,0-1.4c0-0.4,0.1-0.7,0.2-0.9c0.1-0.3,0.2-0.5,0.4-0.6
			c0.2-0.2,0.4-0.3,0.6-0.5l9.5-6.2c0.1-0.1,0.3-0.2,0.4-0.2c0.2-0.1,0.4-0.1,0.7-0.1s0.6-0.1,1.1-0.1c0.4,0,1,0,1.7,0
			c0.9,0,1.6,0,2.1,0.1c0.5,0,0.9,0.1,1.2,0.2c0.3,0.1,0.5,0.2,0.5,0.3c0.1,0.1,0.1,0.3,0.1,0.5v36.5h7.2c0.2,0,0.4,0.1,0.6,0.2
			c0.2,0.1,0.3,0.3,0.4,0.6c0.1,0.3,0.2,0.6,0.3,1.1C313.7,199.5,313.8,200.1,313.8,200.7z"/>
		<path d="M349.2,200.7c0,0.6,0,1.2-0.1,1.6s-0.2,0.8-0.3,1.1c-0.1,0.3-0.3,0.5-0.4,0.6c-0.2,0.1-0.3,0.2-0.5,0.2h-24.4
			c-0.2,0-0.4-0.1-0.5-0.2c-0.2-0.1-0.3-0.3-0.4-0.6c-0.1-0.3-0.2-0.6-0.3-1.1s-0.1-1-0.1-1.6c0-0.7,0-1.2,0.1-1.7
			c0.1-0.4,0.1-0.8,0.3-1.1c0.1-0.3,0.3-0.5,0.4-0.6c0.2-0.1,0.3-0.2,0.5-0.2h8.2v-28.8l-7.1,3.9c-0.5,0.3-1,0.4-1.3,0.5
			c-0.3,0.1-0.6,0-0.8-0.2c-0.2-0.2-0.3-0.5-0.4-1s-0.1-1.2-0.1-2c0-0.5,0-1,0-1.4c0-0.4,0.1-0.7,0.2-0.9c0.1-0.3,0.2-0.5,0.4-0.6
			c0.2-0.2,0.4-0.3,0.6-0.5l9.5-6.2c0.1-0.1,0.3-0.2,0.4-0.2c0.2-0.1,0.4-0.1,0.7-0.1s0.6-0.1,1.1-0.1c0.4,0,1,0,1.7,0
			c0.9,0,1.6,0,2.1,0.1c0.5,0,0.9,0.1,1.2,0.2c0.3,0.1,0.5,0.2,0.5,0.3c0.1,0.1,0.1,0.3,0.1,0.5v36.5h7.2c0.2,0,0.4,0.1,0.6,0.2
			c0.2,0.1,0.3,0.3,0.4,0.6c0.1,0.3,0.2,0.6,0.3,1.1C349.2,199.5,349.2,200.1,349.2,200.7z"/>
	</g>
	<g>
		<path d="M185.1,335c0,0.6,0,1.2-0.1,1.6s-0.2,0.8-0.3,1.1c-0.1,0.3-0.3,0.5-0.4,0.6c-0.2,0.1-0.3,0.2-0.5,0.2h-24.4
			c-0.2,0-0.4-0.1-0.5-0.2c-0.2-0.1-0.3-0.3-0.4-0.6c-0.1-0.3-0.2-0.6-0.3-1.1s-0.1-1-0.1-1.6c0-0.7,0-1.2,0.1-1.7
			c0.1-0.4,0.1-0.8,0.3-1.1c0.1-0.3,0.3-0.5,0.4-0.6c0.2-0.1,0.3-0.2,0.5-0.2h8.2v-28.8l-7.1,3.9c-0.5,0.3-1,0.4-1.3,0.5
			c-0.3,0.1-0.6,0-0.8-0.2c-0.2-0.2-0.3-0.5-0.4-1s-0.1-1.2-0.1-2c0-0.5,0-1,0-1.4c0-0.4,0.1-0.7,0.2-0.9c0.1-0.3,0.2-0.5,0.4-0.6
			c0.2-0.2,0.4-0.3,0.6-0.5l9.5-6.2c0.1-0.1,0.3-0.2,0.4-0.2c0.2-0.1,0.4-0.1,0.7-0.1s0.6-0.1,1.1-0.1c0.4,0,1,0,1.7,0
			c0.9,0,1.6,0,2.1,0.1c0.5,0,0.9,0.1,1.2,0.2c0.3,0.1,0.5,0.2,0.5,0.3c0.1,0.1,0.1,0.3,0.1,0.5v36.5h7.2c0.2,0,0.4,0.1,0.6,0.2
			c0.2,0.1,0.3,0.3,0.4,0.6c0.1,0.3,0.2,0.6,0.3,1.1C185.1,333.8,185.1,334.3,185.1,335z"/>
		<path d="M221.9,316.1c0,3.5-0.3,6.7-0.9,9.6c-0.6,2.8-1.5,5.3-2.8,7.3c-1.3,2-3,3.5-5,4.6c-2.1,1.1-4.6,1.6-7.6,1.6
			c-3,0-5.5-0.5-7.5-1.6s-3.6-2.5-4.7-4.5s-2-4.3-2.4-7.1c-0.5-2.8-0.7-6-0.7-9.6c0-3.5,0.3-6.7,0.9-9.6c0.6-2.9,1.5-5.3,2.8-7.3
			c1.3-2,3-3.5,5-4.6c2.1-1.1,4.6-1.6,7.5-1.6c3,0,5.5,0.5,7.5,1.6c2,1,3.6,2.5,4.7,4.5s2,4.3,2.4,7.1
			C221.7,309.4,221.9,312.6,221.9,316.1z M212.8,316.6c0-2.1-0.1-3.9-0.2-5.6c-0.1-1.6-0.3-3-0.5-4.2c-0.2-1.2-0.5-2.2-0.9-3
			c-0.4-0.8-0.8-1.5-1.3-2c-0.5-0.5-1.1-0.8-1.7-1c-0.6-0.2-1.3-0.3-2.1-0.3c-1.3,0-2.5,0.3-3.3,1c-0.9,0.6-1.6,1.6-2.1,2.9
			s-0.9,2.9-1.1,4.9c-0.2,1.9-0.3,4.2-0.3,6.8c0,3.1,0.1,5.7,0.4,7.8c0.3,2.1,0.6,3.7,1.2,4.9c0.5,1.2,1.2,2.1,2.1,2.6
			c0.8,0.5,1.9,0.7,3,0.7c0.9,0,1.7-0.1,2.4-0.4c0.7-0.3,1.3-0.7,1.8-1.3c0.5-0.6,0.9-1.3,1.3-2.2c0.3-0.9,0.6-1.9,0.8-3
			c0.2-1.1,0.4-2.4,0.4-3.9C212.8,319.9,212.8,318.3,212.8,316.6z"/>
	</g>
	<g>
		<path d="M880.4,509.5c0,2.2-0.4,4.2-1.3,5.9c-0.8,1.7-2,3.1-3.5,4.3s-3.3,2-5.4,2.6c-2.1,0.6-4.4,0.9-6.9,0.9
			c-1.5,0-2.9-0.1-4.2-0.3c-1.3-0.2-2.5-0.5-3.5-0.8c-1-0.3-1.9-0.6-2.5-1c-0.7-0.3-1.1-0.6-1.3-0.8c-0.2-0.2-0.4-0.4-0.5-0.6
			c-0.1-0.2-0.2-0.5-0.3-0.8c-0.1-0.3-0.1-0.7-0.2-1.2c0-0.5-0.1-1-0.1-1.7c0-1.1,0.1-1.9,0.3-2.3c0.2-0.4,0.5-0.6,0.8-0.6
			c0.2,0,0.6,0.2,1.2,0.5c0.6,0.3,1.3,0.6,2.1,1c0.9,0.4,1.9,0.7,3,1c1.2,0.3,2.5,0.5,4,0.5c1.3,0,2.4-0.1,3.3-0.4
			c1-0.3,1.8-0.7,2.4-1.2c0.7-0.5,1.2-1.2,1.5-1.9s0.5-1.6,0.5-2.5c0-1-0.2-1.9-0.6-2.8c-0.4-0.8-1-1.5-1.8-2.1
			c-0.8-0.6-1.8-1-3-1.3c-1.2-0.3-2.6-0.5-4.2-0.5h-3.8c-0.3,0-0.5,0-0.8-0.1s-0.4-0.2-0.5-0.5c-0.1-0.3-0.2-0.6-0.3-1
			c-0.1-0.4-0.1-1-0.1-1.7c0-0.7,0-1.2,0.1-1.6c0.1-0.4,0.1-0.7,0.3-1c0.1-0.2,0.3-0.4,0.5-0.5c0.2-0.1,0.4-0.1,0.7-0.1h3.9
			c1.3,0,2.5-0.2,3.5-0.5s1.9-0.7,2.6-1.3c0.7-0.6,1.2-1.3,1.6-2.1c0.4-0.8,0.5-1.7,0.5-2.7c0-0.8-0.1-1.5-0.4-2.1
			c-0.3-0.7-0.6-1.3-1.1-1.7c-0.5-0.5-1.1-0.9-1.9-1.2c-0.8-0.3-1.7-0.4-2.7-0.4c-1.2,0-2.3,0.2-3.3,0.5c-1,0.4-2,0.7-2.8,1.2
			c-0.8,0.4-1.5,0.8-2.1,1.2c-0.6,0.4-1,0.5-1.3,0.5c-0.2,0-0.3,0-0.5-0.1c-0.1-0.1-0.3-0.2-0.3-0.5c-0.1-0.2-0.2-0.6-0.2-1
			c0-0.4-0.1-1-0.1-1.7c0-0.6,0-1,0-1.4c0-0.4,0.1-0.7,0.1-0.9c0.1-0.3,0.2-0.5,0.3-0.6c0.1-0.2,0.3-0.4,0.5-0.6
			c0.2-0.2,0.7-0.5,1.4-1c0.7-0.4,1.6-0.9,2.7-1.3c1.1-0.4,2.3-0.8,3.7-1c1.4-0.3,2.9-0.4,4.6-0.4c2.1,0,4,0.3,5.7,0.8
			c1.7,0.5,3,1.2,4.2,2.2c1.1,0.9,2,2.1,2.6,3.5c0.6,1.4,0.9,2.9,0.9,4.7c0,1.3-0.2,2.6-0.5,3.8s-0.8,2.2-1.5,3.1
			c-0.7,0.9-1.5,1.7-2.5,2.3c-1,0.6-2.1,1.1-3.4,1.4v0.1c1.5,0.2,2.9,0.6,4.2,1.2c1.2,0.6,2.3,1.4,3.1,2.3c0.9,0.9,1.5,1.9,2,3.1
			C880.1,507,880.4,508.2,880.4,509.5z"/>
	</g>
	<g>
		<path d="M698.7,824.3c0,2.4-0.4,4.5-1.2,6.4c-0.8,1.9-2,3.5-3.5,4.8c-1.5,1.3-3.3,2.3-5.5,3c-2.1,0.7-4.5,1-7.1,1
			c-1.4,0-2.7-0.1-3.9-0.3c-1.2-0.2-2.3-0.4-3.3-0.6c-1-0.3-1.8-0.5-2.4-0.8c-0.6-0.3-1-0.5-1.2-0.6c-0.2-0.2-0.3-0.4-0.4-0.6
			c-0.1-0.2-0.2-0.4-0.2-0.7c-0.1-0.3-0.1-0.6-0.1-1.1c0-0.4,0-0.9,0-1.5c0-0.6,0-1.2,0.1-1.6c0-0.4,0.1-0.8,0.2-1.1
			c0.1-0.3,0.2-0.5,0.4-0.6c0.1-0.1,0.3-0.2,0.5-0.2c0.2,0,0.6,0.1,1,0.4s1.1,0.6,1.8,0.9c0.8,0.3,1.7,0.6,2.8,0.9
			c1.1,0.3,2.4,0.4,3.9,0.4c1.3,0,2.5-0.1,3.6-0.4s2-0.7,2.8-1.3s1.3-1.4,1.7-2.3c0.4-0.9,0.6-2,0.6-3.3c0-1.1-0.2-2.1-0.5-2.9
			c-0.3-0.9-0.9-1.6-1.6-2.2c-0.7-0.6-1.7-1-2.8-1.3c-1.2-0.3-2.6-0.4-4.2-0.4c-1.3,0-2.5,0.1-3.6,0.2c-1.1,0.1-2.1,0.2-3.1,0.2
			c-0.7,0-1.1-0.2-1.4-0.5s-0.4-0.9-0.4-1.8V797c0-0.9,0.2-1.6,0.5-2c0.4-0.4,0.9-0.6,1.7-0.6h21c0.2,0,0.4,0.1,0.6,0.2
			c0.2,0.1,0.3,0.4,0.5,0.6c0.1,0.3,0.2,0.7,0.3,1.2c0.1,0.5,0.1,1.1,0.1,1.8c0,1.4-0.1,2.4-0.4,3c-0.2,0.6-0.6,0.9-1,0.9h-15.7v9.5
			c0.8-0.1,1.6-0.1,2.4-0.2c0.8,0,1.6,0,2.5,0c2.4,0,4.5,0.3,6.4,0.8s3.4,1.4,4.7,2.5c1.3,1.1,2.2,2.4,2.9,4
			C698.4,820.3,698.7,822.2,698.7,824.3z"/>
	</g>
	<g>
		<path d="M832.4,687.5c0,1.2-0.1,2-0.4,2.6c-0.2,0.6-0.6,0.9-1,0.9h-3.9v8c0,0.2-0.1,0.4-0.2,0.6c-0.1,0.2-0.4,0.3-0.7,0.4
			c-0.3,0.1-0.8,0.2-1.3,0.3s-1.3,0.1-2.1,0.1c-0.8,0-1.5,0-2.1-0.1s-1-0.1-1.3-0.3c-0.3-0.1-0.6-0.3-0.7-0.4
			c-0.1-0.2-0.2-0.4-0.2-0.6v-8h-16.9c-0.3,0-0.6,0-0.9-0.1c-0.3-0.1-0.5-0.3-0.6-0.5c-0.2-0.3-0.3-0.7-0.4-1.2s-0.1-1.2-0.1-2.1
			c0-0.7,0-1.4,0.1-1.9c0-0.5,0.1-1,0.2-1.5c0.1-0.4,0.2-0.8,0.3-1.2c0.1-0.4,0.3-0.8,0.6-1.2l13.7-24.2c0.1-0.2,0.3-0.4,0.6-0.5
			c0.3-0.1,0.7-0.3,1.1-0.4c0.5-0.1,1.1-0.2,1.9-0.2c0.8,0,1.7-0.1,2.7-0.1c1.2,0,2.2,0,3,0.1s1.5,0.1,2,0.3
			c0.5,0.1,0.8,0.3,1.1,0.5c0.2,0.2,0.3,0.4,0.3,0.6v26.6h3.9c0.4,0,0.7,0.3,0.9,0.8C832.3,685.3,832.4,686.2,832.4,687.5z
			 M818.5,663.6L818.5,663.6l-11.7,20.3h11.7V663.6z"/>
	</g>
	<g>
		<path d="M150.5,498.4c0,1.8-0.1,3.7-0.3,5.6c-0.2,1.9-0.5,3.8-1,5.7s-1.2,3.6-2.1,5.3c-0.9,1.7-2.1,3.1-3.5,4.4
			c-1.4,1.2-3.2,2.2-5.2,3c-2,0.7-4.4,1.1-7.2,1.1c-1,0-2-0.1-2.9-0.2c-1-0.1-1.9-0.3-2.6-0.5c-0.8-0.2-1.5-0.4-2-0.6
			c-0.6-0.2-1-0.5-1.2-0.7c-0.3-0.2-0.4-0.6-0.5-1c-0.1-0.5-0.2-1.1-0.2-1.9c0-0.8,0-1.4,0.1-1.8c0-0.5,0.1-0.8,0.2-1.1
			c0.1-0.3,0.2-0.4,0.4-0.5c0.1-0.1,0.3-0.1,0.5-0.1c0.3,0,0.7,0.1,1.2,0.2c0.5,0.2,1.1,0.3,1.8,0.5s1.5,0.4,2.4,0.5
			c0.9,0.2,1.9,0.2,3,0.2c1.9,0,3.5-0.3,4.9-1c1.3-0.7,2.4-1.6,3.2-2.8s1.4-2.5,1.8-4c0.4-1.5,0.6-3.1,0.6-4.8
			c-1,0.7-2.3,1.2-3.8,1.7c-1.5,0.5-3.2,0.7-5.1,0.7c-2.3,0-4.3-0.3-6-0.9s-3-1.5-4-2.7s-1.8-2.6-2.2-4.2c-0.5-1.7-0.7-3.5-0.7-5.6
			c0-2.2,0.3-4.2,1-6.1c0.7-1.9,1.6-3.5,2.9-4.8c1.3-1.4,2.9-2.4,4.9-3.2c1.9-0.8,4.2-1.1,6.7-1.1c2.1,0,3.8,0.2,5.4,0.7
			s2.9,1.2,4,2.1c1.1,0.9,2,2,2.8,3.2c0.7,1.3,1.3,2.7,1.7,4.2c0.4,1.5,0.7,3.2,0.9,5C150.5,494.5,150.5,496.4,150.5,498.4z
			 M141.6,497.1c0-2.4-0.1-4.5-0.4-6.1s-0.7-3-1.2-3.9c-0.5-1-1.2-1.7-2.1-2.1s-1.8-0.6-2.9-0.6c-1.1,0-2,0.2-2.8,0.6
			c-0.8,0.4-1.4,0.9-1.9,1.6s-0.9,1.5-1.1,2.4c-0.3,0.9-0.4,2-0.4,3.1c0,1.2,0.1,2.3,0.3,3.2c0.2,0.9,0.6,1.7,1,2.3
			c0.5,0.6,1.1,1.1,1.8,1.4c0.8,0.3,1.7,0.4,2.7,0.4c1.3,0,2.6-0.2,3.7-0.6C139.7,498.3,140.7,497.8,141.6,497.1z"/>
	</g>
	<g>
		<path d="M515.6,868.2c0,2.2-0.3,4.3-1,6.2c-0.7,1.9-1.7,3.5-3,4.9c-1.3,1.4-3,2.5-4.9,3.2c-1.9,0.8-4.2,1.2-6.7,1.2
			c-2.1,0-3.8-0.2-5.4-0.7c-1.5-0.5-2.8-1.1-4-2c-1.1-0.9-2-1.9-2.7-3.2c-0.7-1.3-1.3-2.7-1.7-4.2c-0.4-1.6-0.7-3.3-0.9-5.1
			c-0.2-1.8-0.2-3.8-0.2-5.9c0-1.7,0.1-3.5,0.3-5.4c0.2-1.9,0.5-3.7,1-5.6c0.5-1.8,1.2-3.6,2.1-5.2c0.9-1.7,2-3.1,3.4-4.3
			s3.1-2.2,5.1-3c2-0.7,4.4-1.1,7.1-1.1c0.9,0,1.7,0.1,2.6,0.2c0.9,0.1,1.7,0.2,2.4,0.4c0.8,0.2,1.4,0.3,1.9,0.5
			c0.5,0.2,0.9,0.4,1,0.5c0.2,0.1,0.3,0.3,0.4,0.5c0.1,0.2,0.2,0.4,0.2,0.6c0.1,0.2,0.1,0.5,0.1,0.8c0,0.3,0,0.7,0,1.2
			c0,0.7,0,1.3-0.1,1.8c0,0.5-0.1,0.8-0.2,1.1c-0.1,0.3-0.2,0.5-0.4,0.6c-0.2,0.1-0.4,0.2-0.6,0.2c-0.3,0-0.6-0.1-1.1-0.2
			c-0.4-0.1-1-0.3-1.6-0.5c-0.6-0.2-1.3-0.3-2.2-0.5s-1.8-0.2-2.9-0.2c-1.8,0-3.4,0.3-4.7,1c-1.3,0.7-2.3,1.6-3.1,2.8
			c-0.8,1.2-1.4,2.5-1.7,4.1c-0.4,1.5-0.6,3.2-0.6,4.9c0.5-0.3,1.1-0.6,1.7-1c0.6-0.3,1.4-0.6,2.1-0.8c0.8-0.2,1.6-0.4,2.5-0.6
			c0.9-0.1,1.8-0.2,2.8-0.2c2.2,0,4.1,0.3,5.7,0.9c1.6,0.6,2.9,1.5,3.9,2.6c1,1.1,1.8,2.5,2.2,4.1
			C515.4,864.4,515.6,866.2,515.6,868.2z M506.8,869c0-1.2-0.1-2.2-0.3-3.1c-0.2-0.9-0.5-1.6-1-2.2c-0.5-0.6-1.1-1.1-1.8-1.4
			c-0.8-0.3-1.7-0.5-2.7-0.5c-0.6,0-1.3,0.1-1.9,0.2c-0.6,0.1-1.2,0.3-1.8,0.5c-0.6,0.2-1.2,0.5-1.7,0.7c-0.5,0.3-1.1,0.6-1.5,0.9
			c0,2.4,0.1,4.5,0.4,6.1s0.7,2.9,1.2,3.9c0.5,1,1.2,1.6,2,2c0.8,0.4,1.7,0.6,2.8,0.6c1,0,2-0.2,2.8-0.6c0.8-0.4,1.4-0.9,2-1.6
			c0.5-0.7,0.9-1.5,1.2-2.5C506.7,871.2,506.8,870.2,506.8,869z"/>
	</g>
	<g>
		<path d="M331.9,795.9c0,0.7,0,1.2-0.1,1.7c0,0.5-0.1,0.9-0.2,1.4c-0.1,0.4-0.2,0.8-0.3,1.2c-0.1,0.4-0.3,0.8-0.5,1.2l-14.6,33.7
			c-0.1,0.3-0.3,0.5-0.5,0.7c-0.2,0.2-0.5,0.3-0.9,0.4c-0.4,0.1-0.9,0.2-1.5,0.2c-0.6,0-1.4,0.1-2.2,0.1c-1.2,0-2.2,0-2.9-0.1
			c-0.7-0.1-1.2-0.2-1.6-0.4c-0.3-0.2-0.5-0.4-0.5-0.6c0-0.3,0.1-0.6,0.2-1l15.7-34.5h-18.6c-0.5,0-0.8-0.3-1.1-0.9s-0.4-1.6-0.4-3
			c0-0.7,0-1.3,0.1-1.8c0.1-0.5,0.2-0.9,0.3-1.2c0.1-0.3,0.3-0.5,0.4-0.7s0.4-0.2,0.6-0.2h26.3c0.4,0,0.8,0,1,0.1
			c0.3,0.1,0.5,0.3,0.6,0.5c0.2,0.3,0.3,0.7,0.4,1.2C331.8,794.5,331.9,795.1,331.9,795.9z"/>
	</g>
	<g>
		<path d="M197.7,691.8c0,2-0.3,3.8-1,5.4c-0.7,1.6-1.7,2.9-3.1,4c-1.4,1.1-3,1.9-5,2.5c-2,0.6-4.3,0.8-6.9,0.8
			c-2.5,0-4.7-0.3-6.6-0.8c-1.9-0.5-3.5-1.2-4.8-2.2c-1.3-1-2.2-2.2-2.9-3.6c-0.6-1.4-1-3.1-1-4.9c0-1.3,0.2-2.4,0.6-3.5
			s0.9-2.1,1.7-3.1c0.7-0.9,1.7-1.8,2.8-2.7c1.1-0.8,2.4-1.6,3.8-2.4c-1.2-0.6-2.2-1.3-3.1-2.1c-0.9-0.7-1.7-1.5-2.4-2.4
			c-0.7-0.9-1.2-1.8-1.5-2.9c-0.3-1-0.5-2.2-0.5-3.4c0-1.8,0.3-3.4,0.9-4.8c0.6-1.4,1.6-2.7,2.8-3.8c1.2-1.1,2.8-1.9,4.7-2.4
			c1.9-0.6,4-0.9,6.5-0.9c2.4,0,4.5,0.3,6.3,0.8c1.7,0.5,3.2,1.3,4.3,2.2c1.1,1,1.9,2.1,2.5,3.4c0.5,1.3,0.8,2.8,0.8,4.4
			c0,1.1-0.2,2.1-0.5,3.1c-0.4,1-0.8,2-1.5,2.9c-0.6,0.9-1.4,1.8-2.4,2.6c-0.9,0.8-2,1.5-3.2,2.2c1.4,0.7,2.6,1.5,3.7,2.3
			s2,1.7,2.8,2.6s1.3,2,1.7,3C197.5,689.4,197.7,690.5,197.7,691.8z M188.8,692.4c0-0.8-0.1-1.6-0.4-2.3c-0.3-0.7-0.7-1.3-1.3-2
			c-0.6-0.6-1.4-1.2-2.3-1.8c-0.9-0.6-2-1.2-3.2-1.7c-1,0.6-2,1.1-2.8,1.7c-0.8,0.6-1.5,1.2-2,1.8c-0.5,0.6-0.9,1.3-1.2,2
			c-0.3,0.7-0.4,1.4-0.4,2.2c0,1.8,0.6,3.1,1.7,4.1c1.2,0.9,2.9,1.4,5.1,1.4c2.2,0,3.9-0.5,5-1.4
			C188.2,695.4,188.8,694.1,188.8,692.4z M187.8,670.3c0-0.8-0.1-1.5-0.3-2.2c-0.2-0.6-0.6-1.2-1.1-1.6c-0.5-0.4-1.1-0.8-1.8-1
			c-0.7-0.2-1.6-0.3-2.5-0.3c-1.9,0-3.3,0.4-4.3,1.3c-0.9,0.9-1.4,2.1-1.4,3.6c0,0.7,0.1,1.4,0.4,2s0.6,1.2,1.1,1.7
			c0.5,0.5,1.2,1.1,1.9,1.6c0.8,0.5,1.7,1.1,2.8,1.7c1.7-1,2.9-2,3.8-3.1C187.3,672.9,187.8,671.7,187.8,670.3z"/>
	</g>
	<g>
		<path d="M696.4,197.4c0,0.6,0,1.2-0.1,1.6s-0.2,0.8-0.3,1.1c-0.1,0.3-0.3,0.5-0.4,0.6c-0.2,0.1-0.3,0.2-0.5,0.2h-24.4
			c-0.2,0-0.4-0.1-0.5-0.2c-0.2-0.1-0.3-0.3-0.4-0.6c-0.1-0.3-0.2-0.6-0.3-1.1s-0.1-1-0.1-1.6c0-0.7,0-1.2,0.1-1.7s0.1-0.8,0.3-1.1
			s0.3-0.5,0.4-0.6c0.2-0.1,0.3-0.2,0.5-0.2h8.2v-28.8l-7.1,3.9c-0.5,0.3-1,0.4-1.3,0.5c-0.3,0.1-0.6,0-0.8-0.2
			c-0.2-0.2-0.3-0.5-0.4-1s-0.1-1.2-0.1-2c0-0.5,0-1,0-1.4c0-0.4,0.1-0.7,0.2-0.9c0.1-0.3,0.2-0.5,0.4-0.6c0.2-0.2,0.4-0.3,0.6-0.5
			l9.5-6.2c0.1-0.1,0.3-0.2,0.4-0.2c0.2-0.1,0.4-0.1,0.7-0.1s0.6-0.1,1.1-0.1c0.4,0,1,0,1.7,0c0.9,0,1.6,0,2.1,0.1s0.9,0.1,1.2,0.2
			c0.3,0.1,0.5,0.2,0.5,0.3c0.1,0.1,0.1,0.3,0.1,0.5v36.5h7.2c0.2,0,0.4,0.1,0.6,0.2c0.2,0.1,0.3,0.3,0.4,0.6s0.2,0.6,0.3,1.1
			S696.4,196.7,696.4,197.4z"/>
	</g>
	<g>
		<path d="M833.3,330.3c0,0.7,0,1.2-0.1,1.7c-0.1,0.5-0.1,0.8-0.3,1.1c-0.1,0.3-0.3,0.5-0.4,0.6c-0.2,0.1-0.4,0.2-0.6,0.2h-25.4
			c-0.5,0-0.9,0-1.3-0.1c-0.4-0.1-0.7-0.3-0.9-0.5c-0.2-0.3-0.4-0.6-0.5-1.1c-0.1-0.5-0.2-1.2-0.2-1.9c0-0.8,0-1.4,0.1-1.9
			c0.1-0.5,0.2-1,0.4-1.4c0.2-0.4,0.4-0.8,0.7-1.2c0.3-0.4,0.7-0.8,1.1-1.3l7.7-8.2c1.5-1.6,2.8-3,3.7-4.4c0.9-1.3,1.7-2.5,2.2-3.6
			c0.5-1.1,0.9-2.1,1.1-3c0.2-0.9,0.3-1.8,0.3-2.6c0-0.8-0.1-1.5-0.4-2.1c-0.2-0.7-0.6-1.3-1.1-1.8c-0.5-0.5-1.1-0.9-1.8-1.2
			c-0.7-0.3-1.5-0.4-2.5-0.4c-1.3,0-2.5,0.2-3.6,0.5c-1,0.3-1.9,0.7-2.7,1.1c-0.8,0.4-1.4,0.8-2,1.2c-0.5,0.4-0.9,0.5-1.2,0.5
			c-0.2,0-0.4-0.1-0.5-0.2s-0.3-0.4-0.4-0.7c-0.1-0.3-0.2-0.7-0.2-1.3c-0.1-0.5-0.1-1.2-0.1-2c0-0.5,0-1,0.1-1.3
			c0-0.4,0.1-0.7,0.2-0.9c0.1-0.3,0.2-0.5,0.3-0.7c0.1-0.2,0.3-0.4,0.6-0.7s0.8-0.6,1.6-1c0.8-0.4,1.7-0.8,2.8-1.2
			c1.1-0.4,2.3-0.7,3.7-1c1.3-0.3,2.7-0.4,4.2-0.4c2.3,0,4.3,0.3,6,0.9s3.2,1.4,4.3,2.4c1.1,1,2,2.3,2.5,3.7c0.6,1.4,0.8,3,0.8,4.6
			c0,1.4-0.1,2.8-0.4,4.2c-0.3,1.4-0.8,2.9-1.7,4.5c-0.9,1.6-2.1,3.4-3.7,5.3s-3.7,4.2-6.3,6.8l-5.2,5.3h17.4c0.2,0,0.4,0.1,0.6,0.2
			s0.4,0.3,0.5,0.6c0.1,0.3,0.2,0.7,0.3,1.1C833.3,329.1,833.3,329.6,833.3,330.3z"/>
	</g>
</g>
<g id="hr">
</g>
<g id="mn">
</g>
<g id="sc">
</g>
</svg>
